<svg xmlns="http://www.w3.org/2000/svg" viewBox="0 0 20 20">
	<defs>
		<linearGradient id="ringGradient">
			<stop offset="0%" stop-color="#ffb14a" />
			<stop offset="100%" stop-color="#9a6929" />
		</linearGradient>
		<linearGradient id="innerGradient">
			<stop offset="0%" stop-color="#9a6929" />
			<stop offset="100%" stop-color="#ffb14a" />
		</linearGradient>
	</defs>
	<path d="M 0 10 A 1 1 0 0 0 20 10 A 1 1 0 0 0 0 10 Z M 1 10 A 1 1 0 0 1 19 10 A 1 1 0 0 1 1 10 Z" fill="black" />
	<path d="M 1 10 A 1 1 0 0 0 19 10 A 1 1 0 0 0 1 10 Z M 3 10 A 1 1 0 0 1 17 10 A 1 1 0 0 1 3 10 Z" fill="url(#ringGradient)" />
	<circle cx="10" cy="10" r="7" fill="url(#innerGradient)" />
	<path d="M 12 8 L 14 7 A 5 5 0 1 0 14 13 L 12 12 A 3 3 0 1 1 12 8 Z" fill="url(#ringGradient)" stroke="#422b0c" stroke-width="0.3" />
</svg>