<svg xmlns="http://www.w3.org/2000/svg" viewBox="0 0 7 18">
	<defs>
		<linearGradient id="mainGradient" gradientTransform="rotate(0)">
			<stop offset="0%" stop-color="#fff9bd" />
			<stop offset="100%" stop-color="#ffe954" />
		</linearGradient>
	</defs>
	<!-- Back ring -->
	<g>
		<path d="M 1 9 A 3 9 0 0 1 4 0 A 3 9 0 0 1 7 9 A 3 9 0 0 1 4 18 A 3 9 0 0 1 1 9 Z M 2 9 A 2 8 0 0 0 4 17 A 2 8 0 0 0 6 9 A 2 8 0 0 0 4 1 A 2 8 0 0 0 2 9 Z" fill="black" />
	</g>
	<!-- Front ring -->
	<g>
		<path d="M 0 9 A 3 9 0 0 1 3 0 A 3 9 0 0 1 6 9 A 3 9 0 0 1 3 18 A 3 9 0 0 1 0 9 Z M 1 9 A 2 8 0 0 0 3 17 A 2 8 0 0 0 5 9 A 2 8 0 0 0 3 1 A 2 8 0 0 0 1 9 Z" fill="url(#mainGradient)" />
	</g>
</svg>