<svg xmlns="http://www.w3.org/2000/svg" viewBox="0 0 18 18">
	<style>
		.outline {
			fill: black;
		}
		.middle {
			fill: #00ff21;
		}
		.inside {
			fill: #00f2ff;
		}
	</style>
	<!-- <path class="middle" d="M 0 8 L 3 6 L 3 3 L 8 4 L 9 0 L 14 5 L 18 5 L 16 11 L 18 14 L 12 18 L 10 16 L 7 18 L 5 17 L 7 13 L 0 14 L 4 9 Z" /> -->
	<!-- <path class="inside" d="M 6 7 L 5 6 L 9 6 L 9 3 L 13 7 L 17 7 L 13 11 L 16 13 L 11 16 L 10 13 L 7 17 L 8 11 L 3 13 L 7 8 L 2 8 Z" /> -->
	<path class="outline" d="M 9.78 17.97 L 9.7 16.97 L 15.89 14.79 L 15.13 14.14 L 17.97 8.22 L 16.97 8.3 L 14.79 2.11 L 14.14 2.87 L 8.22 0.03 L 8.3 1.03 L 2.11 3.21 L 2.87 3.86 L 0.03 9.78 L 1.03 9.7 L 3.21 15.89 L 3.86 15.13 Z" />
	<path class="middle" d="M 9 17 L 9 16 L 14.66 14.66 L 13.95 13.95 L 17 9 L 16 9 L 14.66 3.34 L 13.95 4.05 L 9 1 L 9 2 L 3.34 3.34 L 4.05 4.05 L 1 9 L 2 9 L 3.34 14.66 L 4.05 13.95 Z" />
	<path class="outline" d="M 9.44 13.98 L 9.35 12.98 L 12.83 12.21 L 12.06 11.57 L 13.98 8.56 L 12.98 8.65 L 12.21 5.17 L 11.57 5.94 L 8.56 4.02 L 8.65 5.02 L 5.17 5.79 L 5.94 6.43 L 4.02 9.44 L 5.02 9.35 L 5.79 12.83 L 6.43 12.06 Z" />
	<path class="inside" d="M 9 13 L 9 12 L 11.83 11.83 L 11.12 11.12 L 13 9 L 12 9 L 11.83 6.17 L 11.12 6.88 L 9 5 L 9 6 L 6.17 6.17 L 6.88 6.88 L 5 9 L 6 9 L 6.17 11.83 L 6.88 11.12 Z" />
</svg>