<svg xmlns="http://www.w3.org/2000/svg" viewBox="-11 -4 37 37">
	<style>
		.outline {
			fill: black;
		}
		.middle {
			fill: #00ff21;
		}
		.inside {
			fill: #00f2ff;
		}
	</style>
	<g>
		<path class="outline" d="M 0 0 L 18 0 L 18 18 L 0 18 Z M 1 1 L 1 17 L 17 17 L 17 1 Z" />
		<path class="middle" d="M 1 1 L 17 1 L 17 17 L 1 17 Z M 5 5 L 5 13 L 13 13 L 13 5 Z" />
		<path class="outline" d="M 6 6 L 12 6 L 12 12 L 6 12 Z M 7 7 L 7 11 L 11 11 L 11 7 Z" />
		<path class="outline" d="M 4 4 L 14 4 L 14 14 L 4 14 Z M 5 5 L 5 13 L 13 13 L 13 5 Z" />
		<rect class="inside" x="7" y="7" width="4" height="4" />
	</g>
	<g>
		<g>
			<path class="outline" d="M -2 9 L 2 9 L 2 14 L 20 16 L 20 20 L -2 20 Z M -1 10 L -1 19 L 19 19 L 19 17 L 1 15 L 1 10 Z" />
			<path class="inside" d="M -1 10 L -1 19 L 19 19 L 19 17 L 1 15 L 1 10 Z" />
		</g>
		<g>
			<path class="outline" d="M 0 20 L 0 27 L 16 27 L 16 20 L 15 20 L 15 26 L 1 26 L 1 20 Z" />
			<rect class="middle" x="1" y="20" width="14" height="6" />
		</g>
		<g>
			<path class="outline" d="M 20 17 L 26 18 L 26 25 L 16 27 L 16 20 L 17 20 L 17 26 L 25 24 L 25 19 L 20 18 Z" />
			<path class="middle" d="M 20 18 L 25 19 L 25 24 L 17 26 L 17 20 L 20 20 Z" />
		</g>
		<g>
			<path class="outline" d="M 0 26 L 0 27 L -7 29 L -7 17 L -2 18 L -2 19 L -6 18 L -6 28 Z" />
			<path class="middle" d="M -6 18 L -2 19 L -2 20 L 0 20 L 0 26 L -6 28 Z" />
		</g>
		<g>
			<path class="outline" d="M -7 18 L -7 19 L -10 19 L -10 27 L -7 27 L -7 28 L -11 28 L -11 18 Z" />
			<rect class="middle" x="-10" y="19" width="3" height="8" />
		</g>
	</g>
</svg>