<svg xmlns="http://www.w3.org/2000/svg" viewBox="0 -2 10 22">
	<defs>
		<linearGradient id="mainGradient" gradientTransform="rotate(0)">
			<stop offset="0%" stop-color="#00bcff" />
			<stop offset="100%" stop-color="#00aae8" />
		</linearGradient>
	</defs>
	<!-- Ring 2 -->
	<g>
		<path d="M 4 9 A 3 9 0 0 1 7 0 A 3 9 0 0 1 10 9 A 3 9 0 0 1 7 18 A 3 9 0 0 1 4 9 Z M 5 9 A 2 8 0 0 0 7 17 A 2 8 0 0 0 9 9 A 2 8 0 0 0 7 1 A 2 8 0 0 0 5 9 Z" fill="black" />
	</g>
	<!-- Ring 1 -->
	<g>
		<path d="M 2 9 A 3 9 0 0 1 5 0 A 3 9 0 0 1 8 9 A 3 9 0 0 1 5 18 A 3 9 0 0 1 2 9 Z M 3 9 A 2 8 0 0 0 5 17 A 2 8 0 0 0 7 9 A 2 8 0 0 0 5 1 A 2 8 0 0 0 3 9 Z" fill="black" />
	</g>
	<!-- Bars -->
	<g>
		<!-- Back bars -->
		<g>
			<rect x="1.5" y="2" width="4" height="1" fill="black" />
			<rect x="1" y="4" width="4" height="1" fill="black" />
			<rect x="1" y="6" width="4" height="1" fill="black" />
			<rect x="1" y="8" width="4" height="1" fill="black" />
			<rect x="1" y="10" width="4" height="1" fill="black" />
			<rect x="1" y="12" width="4" height="1" fill="black" />
			<rect x="1" y="14" width="4" height="1" fill="black" />
			<rect x="2" y="16" width="4" height="1" fill="black" />
		</g>
		<!-- Middle bars -->
		<g>
			<rect x="3" y="0" width="4" height="1" fill="black" />
			<rect x="3" y="17" width="4" height="1" fill="black" />
		</g>
		<!-- Front bars -->
		<g>
			<rect x="4.5" y="1.5" width="4" height="1.5" fill="black" />
			<rect x="5" y="4.1" width="4" height="1.5" fill="black" />
			<rect x="5" y="6.7" width="4" height="1.5" fill="black" />
			<rect x="5" y="9.3" width="4" height="1.5" fill="black" />
			<rect x="5" y="11.9" width="4" height="1.5" fill="black" />
			<rect x="4.5" y="14.5" width="4" height="1.5" fill="black" />
		</g>
	</g>
	<!-- Start ring -->
	<g>
		<path d="M 0 9 A 3 9 0 0 1 3 0 A 3 9 0 0 1 6 9 A 3 9 0 0 1 3 18 A 3 9 0 0 1 0 9 Z M 1 9 A 2 8 0 0 0 3 17 A 2 8 0 0 0 5 9 A 2 8 0 0 0 3 1 A 2 8 0 0 0 1 9 Z" fill="url(#mainGradient)" />
	</g>
	<!-- Bubbles -->
	<g>
		<circle cx="5.5" cy="-1" r="1" fill="url(#mainGradient)" />
		<circle cx="8" cy="5" r="1" fill="url(#mainGradient)" />
		<circle cx="8" cy="12" r="1" fill="url(#mainGradient)" />
		<circle cx="5.5" cy="19" r="1" fill="url(#mainGradient)" />
	</g>
</svg>