<svg xmlns="http://www.w3.org/2000/svg" viewBox="0 0 18 18">
	<style>
		.outline {
			fill: black;
		}
		.middle {
			fill: #00ff21;
		}
		.inside {
			fill: #00f2ff;
		}
	</style>
	<path class="outline" d="M 0 0 L 18 0 L 18 18 L 0 18 Z M 1 1 L 1 17 L 17 17 L 17 1 Z" />
	<path class="middle" d="M 1 1 L 17 1 L 17 17 L 1 17 Z M 5 5 L 5 13 L 13 13 L 13 5 Z" />
	<path class="outline" d="M 6 6 L 12 6 L 12 12 L 6 12 Z M 7 7 L 7 11 L 11 11 L 11 7 Z" />
	<path class="outline" d="M 4 4 L 14 4 L 14 14 L 4 14 Z M 5 5 L 5 13 L 13 13 L 13 5 Z" />
	<rect class="inside" x="7" y="7" width="4" height="4" />
</svg>